<svg width="602" height="267" viewBox="0 0 602 267" fill="none" xmlns="http://www.w3.org/2000/svg">
<g clip-path="url(#clip0_80_2)">
<mask id="mask0_80_2" style="mask-type:luminance" maskUnits="userSpaceOnUse" x="0" y="0" width="602" height="267">
<path d="M601.42 0H0V266.9H601.42V0Z" fill="white"/>
</mask>
<g mask="url(#mask0_80_2)">
<path d="M457.88 219.79C457.88 222.88 457.55 226.54 463.31 226.54C464.21 226.54 465.2 226.36 466.07 226.12V223.78C465.35 223.99 464.54 224.05 463.73 224.05C461.66 224.05 460.55 222.91 460.61 220.84V205.64H465.77V203.15H460.61V197.12L457.91 198.29V203.12H453.38V205.61H457.91V219.79H457.88Z" fill="#0A69B3"/>
</g>
<mask id="mask1_80_2" style="mask-type:luminance" maskUnits="userSpaceOnUse" x="0" y="0" width="602" height="267">
<path d="M601.42 0H0V266.9H601.42V0Z" fill="white"/>
</mask>
<g mask="url(#mask1_80_2)">
<path d="M488.46 216.23C488.46 220.31 486.42 224.06 481.95 224.06C478.23 224.06 475.98 221.75 475.98 217.82V203.16H473.25V217.37C473.25 220.01 473.85 226.55 481.26 226.55C484.2 226.55 486.78 225.23 488.37 222.44L488.46 222.53L488.58 225.83H491.37C491.28 224.3 491.16 222.5 491.16 220.73V203.19H488.46V216.23Z" fill="#0A69B3"/>
</g>
<mask id="mask2_80_2" style="mask-type:luminance" maskUnits="userSpaceOnUse" x="0" y="0" width="602" height="267">
<path d="M601.42 0H0V266.9H601.42V0Z" fill="white"/>
</mask>
<g mask="url(#mask2_80_2)">
<path d="M503.4 212.81C503.4 208.73 505.44 204.98 509.91 204.98C513.63 204.98 515.88 207.29 515.88 211.22V225.88H518.61V211.67C518.61 209.03 518.01 202.49 510.6 202.49C507.66 202.49 505.08 203.81 503.49 206.6L503.4 206.51L503.25 203.18H500.46C500.55 204.71 500.67 206.51 500.67 208.28V225.88H503.4V212.81Z" fill="#0A69B3"/>
</g>
<mask id="mask3_80_2" style="mask-type:luminance" maskUnits="userSpaceOnUse" x="0" y="0" width="602" height="267">
<path d="M601.42 0H0V266.9H601.42V0Z" fill="white"/>
</mask>
<g mask="url(#mask3_80_2)">
<path d="M543.73 214.04C543.73 218.48 541.75 223.34 536.53 223.34C531.55 223.34 529.42 218.3 529.42 214.13C529.42 209.96 531.49 204.98 536.44 204.98C541.33 204.98 543.73 209.69 543.73 214.04ZM543.73 206.51L543.64 206.69C541.84 204.05 539.47 202.49 536.17 202.49C529.24 202.49 526.48 208.19 526.48 214.36C526.48 220.6 529.42 225.81 536.26 225.81C539.2 225.81 542.32 224.22 543.64 221.55H543.73V225.78C543.64 229.56 540.37 232.05 536.86 232.05C533.98 232.05 530.74 231.15 530.44 228.45H527.5C527.5 233.13 532.39 234.54 536.5 234.54C538.63 234.54 539.83 234.36 541.66 233.49C546.67 231.15 546.46 226.44 546.46 221.92V208.28C546.46 206.51 546.61 204.71 546.67 203.15H543.88L543.73 206.51Z" fill="#0A69B3"/>
</g>
<path d="M32.05 174.91H546.67" stroke="#020203" stroke-width="1.041"/>
<path d="M162.79 68.43H145.37V149.48H162.79V68.43Z" fill="#0A69B3"/>
<path d="M194 68.43H176.58V149.48H194V68.43Z" fill="#0A69B3"/>
<path d="M256.62 68.43V100.42H225.97V68.43H208.58V149.51H225.97V113.91H256.86V149.51H274.25V68.43H256.62Z" fill="#0A69B3"/>
<mask id="mask4_80_2" style="mask-type:luminance" maskUnits="userSpaceOnUse" x="0" y="0" width="602" height="267">
<path d="M601.42 0H0V266.9H601.42V0Z" fill="white"/>
</mask>
<g mask="url(#mask4_80_2)">
<path d="M312.42 137.93V144.56C310.62 144.92 308.85 145.25 306.12 145.25C300.15 145.25 297.24 140.84 297.24 133.71C297.24 126.57 300.12 122.17 306.12 122.17C309.84 122.17 312.45 123.52 312.45 127.54H319.65C319.59 120.04 313.98 117.28 304.84 117.28C298.6 117.28 290.03 121.15 290.03 133.68C290.03 146.21 298.58 150.11 304.84 150.11C308.98 150.11 310.57 149.93 312.1 149.81C314.53 149.6 316.87 149.15 319.18 148.4V132.63H306.26V137.94H312.42V137.93Z" fill="#0A69B3"/>
</g>
<mask id="mask5_80_2" style="mask-type:luminance" maskUnits="userSpaceOnUse" x="0" y="0" width="602" height="267">
<path d="M601.42 0H0V266.9H601.42V0Z" fill="white"/>
</mask>
<g mask="url(#mask5_80_2)">
<path d="M331.82 127.59H325.31V149.51H331.85V136.29C331.94 133.11 333.74 131.25 335.78 131.25C339.02 131.25 339.68 133.92 339.71 136.29V149.51H346.28V136.29C346.37 133.11 348.17 131.25 350.21 131.25C353.45 131.25 354.11 133.92 354.14 136.29V149.51H360.68V136.29C360.68 134.55 360.71 132.69 360.02 131.04C359.09 128.64 355.49 126.9 353.03 126.9C349.7 126.9 347.66 128.22 345.62 131.04C344.69 128.64 341.09 126.9 338.63 126.9C335.3 126.9 333.26 128.22 331.91 130.14H331.82V127.59Z" fill="#0A69B3"/>
</g>
<mask id="mask6_80_2" style="mask-type:luminance" maskUnits="userSpaceOnUse" x="0" y="0" width="602" height="267">
<path d="M601.42 0H0V266.9H601.42V0Z" fill="white"/>
</mask>
<g mask="url(#mask6_80_2)">
<path d="M372.33 138.53C372.33 135.5 373.5 131.27 377.04 131.27C381.24 131.27 381.75 135.17 381.75 138.53C381.75 141.89 381.24 145.79 377.04 145.79C373.5 145.79 372.33 141.56 372.33 138.53ZM365.79 145.13C365.79 146.57 365.64 148.07 365.58 149.51H372.15C372.24 148.46 372.33 147.47 372.33 146.42H372.42C373.86 149 376.32 150.17 379.14 150.17C385.56 150.17 388.59 144.2 388.59 138.57C388.59 132.66 385.14 126.97 378.33 126.97C376.05 126.97 373.71 128.32 372.48 130.15H372.39V118.01H365.85V145.15H365.79V145.13Z" fill="#0A69B3"/>
</g>
<mask id="mask7_80_2" style="mask-type:luminance" maskUnits="userSpaceOnUse" x="0" y="0" width="602" height="267">
<path d="M601.42 0H0V266.9H601.42V0Z" fill="white"/>
</mask>
<g mask="url(#mask7_80_2)">
<path d="M400.07 149.51V135.65H412.06V149.51H418.84V117.96H411.97V130.41H400.07V117.96H393.29V149.51H400.07Z" fill="#0A69B3"/>
</g>
<mask id="mask8_80_2" style="mask-type:luminance" maskUnits="userSpaceOnUse" x="0" y="0" width="602" height="267">
<path d="M601.42 0H0V266.9H601.42V0Z" fill="white"/>
</mask>
<g mask="url(#mask8_80_2)">
<path d="M36.1299 225.88H38.8299V193.23H36.1299V225.88ZM35.8899 196.61H39.0699V193.22H35.8899V196.61Z" fill="#0A69B3"/>
</g>
<mask id="mask9_80_2" style="mask-type:luminance" maskUnits="userSpaceOnUse" x="0" y="0" width="602" height="267">
<path d="M601.42 0H0V266.9H601.42V0Z" fill="white"/>
</mask>
<g mask="url(#mask9_80_2)">
<path d="M51.0999 212.81C51.0999 208.73 53.1399 204.98 57.6099 204.98C61.3299 204.98 63.5799 207.29 63.5799 211.22V225.88H66.3099V211.67C66.3099 209.03 65.7099 202.49 58.2999 202.49C55.3599 202.49 52.7799 203.81 51.1899 206.6L51.0999 206.51L50.9499 203.18H48.1299C48.2199 204.71 48.3699 206.51 48.3699 208.28V225.88H51.0999V212.81Z" fill="#0A69B3"/>
</g>
<mask id="mask10_80_2" style="mask-type:luminance" maskUnits="userSpaceOnUse" x="0" y="0" width="602" height="267">
<path d="M601.42 0H0V266.9H601.42V0Z" fill="white"/>
</mask>
<g mask="url(#mask10_80_2)">
<path d="M91.34 213.98C91.34 219.14 89.54 224.06 83.6 224.06C78.41 224.06 77.18 218.3 77.18 214.1C77.18 209.75 78.86 204.95 84.02 204.95C89.3 204.98 91.34 209.36 91.34 213.98ZM91.55 225.82H94.34C94.25 224.32 94.1 222.52 94.1 220.75V193.22H91.4V206.5L91.31 206.59C89.72 203.92 86.57 202.48 83.54 202.48C76.79 202.48 74.21 208.54 74.21 214.41C74.21 220.11 76.79 226.52 83.54 226.52C86.72 226.52 89.48 225.02 91.31 222.32L91.4 222.5L91.55 225.82Z" fill="#0A69B3"/>
</g>
<mask id="mask11_80_2" style="mask-type:luminance" maskUnits="userSpaceOnUse" x="0" y="0" width="602" height="267">
<path d="M601.42 0H0V266.9H601.42V0Z" fill="white"/>
</mask>
<g mask="url(#mask11_80_2)">
<path d="M118.38 216.23C118.38 220.31 116.34 224.06 111.87 224.06C108.15 224.06 105.9 221.75 105.9 217.82V203.16H103.17V217.37C103.17 220.01 103.77 226.55 111.18 226.55C114.12 226.55 116.7 225.23 118.29 222.44L118.38 222.53L118.5 225.83H121.32C121.23 224.3 121.08 222.5 121.08 220.73V203.19H118.38V216.23Z" fill="#0A69B3"/>
</g>
<mask id="mask12_80_2" style="mask-type:luminance" maskUnits="userSpaceOnUse" x="0" y="0" width="602" height="267">
<path d="M601.42 0H0V266.9H601.42V0Z" fill="white"/>
</mask>
<g mask="url(#mask12_80_2)">
<path d="M129.81 208.82C129.81 213.02 133.44 214.07 137.01 214.94C140.64 215.75 144.21 216.29 144.21 219.56C144.21 222.74 141.18 224.09 138.27 224.09C135.18 224.09 132.21 223.1 131.97 219.71H129.03C129.12 224.72 133.65 226.58 137.58 226.58C142.38 226.58 147.12 224.27 147.12 219.17C147.12 216.74 145.62 214.7 143.28 213.89C137.13 211.73 132.76 212.03 132.76 208.7C132.76 206.03 135.34 205.04 137.86 205.04C140.68 205.04 143.2 206 143.47 208.85H146.41C146.05 204.05 142.42 202.55 138.13 202.55C134.16 202.49 129.81 204.11 129.81 208.82Z" fill="#0A69B3"/>
</g>
<mask id="mask13_80_2" style="mask-type:luminance" maskUnits="userSpaceOnUse" x="0" y="0" width="602" height="267">
<path d="M601.42 0H0V266.9H601.42V0Z" fill="white"/>
</mask>
<g mask="url(#mask13_80_2)">
<path d="M157.39 219.79C157.39 222.88 157.06 226.54 162.82 226.54C163.72 226.54 164.71 226.36 165.58 226.12V223.78C164.86 223.99 164.05 224.05 163.24 224.05C161.17 224.05 160.06 222.91 160.12 220.84V205.64H165.28V203.15H160.12V197.12L157.42 198.29V203.12H152.89V205.61H157.42V219.79H157.39Z" fill="#0A69B3"/>
</g>
<mask id="mask14_80_2" style="mask-type:luminance" maskUnits="userSpaceOnUse" x="0" y="0" width="602" height="267">
<path d="M601.42 0H0V266.9H601.42V0Z" fill="white"/>
</mask>
<g mask="url(#mask14_80_2)">
<path d="M175.48 212.21C175.57 207.86 177.7 204.98 181.72 204.98C182.26 204.98 182.86 205.1 183.4 205.16V202.52C182.5 202.49 181.6 202.43 180.67 202.49C178.42 202.58 176.38 204.2 175.57 206.51H175.48L175.33 203.18H172.51C172.6 204.71 172.78 206.51 172.75 208.28V225.88H175.48V212.21Z" fill="#0A69B3"/>
</g>
<mask id="mask15_80_2" style="mask-type:luminance" maskUnits="userSpaceOnUse" x="0" y="0" width="602" height="267">
<path d="M601.42 0H0V266.9H601.42V0Z" fill="white"/>
</mask>
<g mask="url(#mask15_80_2)">
<path d="M190.14 225.88H192.87V203.18H190.14V225.88ZM189.9 196.61H193.08V193.22H189.9C189.9 193.23 189.9 196.61 189.9 196.61Z" fill="#0A69B3"/>
</g>
<mask id="mask16_80_2" style="mask-type:luminance" maskUnits="userSpaceOnUse" x="0" y="0" width="602" height="267">
<path d="M601.42 0H0V266.9H601.42V0Z" fill="white"/>
</mask>
<g mask="url(#mask16_80_2)">
<path d="M221.53 215.15C221.53 208.04 218.77 202.5 211.19 202.5C204.44 202.5 201.05 208.38 201.05 214.52C201.05 220.73 204.23 226.54 211.01 226.54C216.47 226.54 219.86 224.05 221.27 218.62H218.42C217.73 221.74 215.06 224.05 211.85 224.05C206.27 224.05 204.08 219.97 203.96 215.14H221.53V215.15ZM204.05 212.66C204.41 208.67 206.75 204.98 211.19 204.98C215.9 204.98 218.24 208.28 218.57 212.66H204.05Z" fill="#0A69B3"/>
</g>
<mask id="mask17_80_2" style="mask-type:luminance" maskUnits="userSpaceOnUse" x="0" y="0" width="602" height="267">
<path d="M601.42 0H0V266.9H601.42V0Z" fill="white"/>
</mask>
<g mask="url(#mask17_80_2)">
<path d="M229.84 225.88H232.54V203.18H229.84V225.88ZM229.63 196.61H232.81V193.22H229.63V196.61Z" fill="#0A69B3"/>
</g>
<mask id="mask18_80_2" style="mask-type:luminance" maskUnits="userSpaceOnUse" x="0" y="0" width="602" height="267">
<path d="M601.42 0H0V266.9H601.42V0Z" fill="white"/>
</mask>
<g mask="url(#mask18_80_2)">
<path d="M244.8 212.81C244.8 208.73 246.84 204.98 251.31 204.98C255.03 204.98 257.28 207.29 257.28 211.22V225.88H260V211.67C260 209.03 259.4 202.49 251.99 202.49C249.05 202.49 246.47 203.81 244.88 206.6L244.79 206.51L244.64 203.18H241.85C241.94 204.71 242.06 206.51 242.06 208.28V225.88H244.79V212.81H244.8Z" fill="#0A69B3"/>
</g>
<mask id="mask19_80_2" style="mask-type:luminance" maskUnits="userSpaceOnUse" x="0" y="0" width="602" height="267">
<path d="M601.42 0H0V266.9H601.42V0Z" fill="white"/>
</mask>
<g mask="url(#mask19_80_2)">
<path d="M268.73 208.82C268.73 213.02 272.36 214.07 275.93 214.94C279.56 215.75 283.13 216.29 283.13 219.56C283.13 222.74 280.1 224.09 277.19 224.09C274.1 224.09 271.13 223.1 270.89 219.71H267.95C268.04 224.72 272.57 226.58 276.5 226.58C281.3 226.58 286.04 224.27 286.04 219.17C286.04 216.74 284.54 214.7 282.2 213.89C276.05 211.73 271.68 212.03 271.68 208.7C271.68 206.03 274.26 205.04 276.81 205.04C279.6 205.04 282.15 206 282.42 208.85H285.36C285 204.05 281.37 202.55 277.08 202.55C273.08 202.49 268.73 204.11 268.73 208.82Z" fill="#0A69B3"/>
</g>
<mask id="mask20_80_2" style="mask-type:luminance" maskUnits="userSpaceOnUse" x="0" y="0" width="602" height="267">
<path d="M601.42 0H0V266.9H601.42V0Z" fill="white"/>
</mask>
<g mask="url(#mask20_80_2)">
<path d="M296.32 219.79C296.32 222.88 295.99 226.54 301.75 226.54C302.65 226.54 303.64 226.36 304.51 226.12V223.78C303.79 223.99 302.98 224.05 302.17 224.05C300.1 224.05 298.99 222.91 299.05 220.84V205.64H304.21V203.15H299.05V197.12L296.35 198.29V203.12H291.82V205.61H296.35V219.79H296.32Z" fill="#0A69B3"/>
</g>
<mask id="mask21_80_2" style="mask-type:luminance" maskUnits="userSpaceOnUse" x="0" y="0" width="602" height="267">
<path d="M601.42 0H0V266.9H601.42V0Z" fill="white"/>
</mask>
<g mask="url(#mask21_80_2)">
<path d="M312.63 219.52C312.63 213.82 320.67 214.54 324.53 214.39C324.8 219.13 323.66 224.02 317.75 224.02C315 224.05 312.63 222.61 312.63 219.52ZM324.53 211.94C321.23 212.12 317.3 211.67 314.27 212.99C311.57 214.13 309.71 216.47 309.71 219.56C309.71 224 313.07 226.58 317.27 226.58C320.33 226.58 323.39 224.78 324.38 222.86L324.5 222.53H324.59L324.68 225.83H327.47C327.38 224.3 327.2 222.5 327.26 220.73V210C327.35 204.81 324.23 202.5 319.19 202.5C314.84 202.5 311.36 204.27 310.7 208.92H313.61C313.97 205.86 316.31 204.99 319.16 204.99C322.37 204.99 324.26 206.16 324.53 209.88V211.94Z" fill="#0A69B3"/>
</g>
<mask id="mask22_80_2" style="mask-type:luminance" maskUnits="userSpaceOnUse" x="0" y="0" width="602" height="267">
<path d="M601.42 0H0V266.9H601.42V0Z" fill="white"/>
</mask>
<g mask="url(#mask22_80_2)">
<path d="M339.29 212.81C339.29 208.73 341.33 204.98 345.8 204.98C349.52 204.98 351.77 207.29 351.77 211.22V225.88H354.5V211.67C354.5 209.03 353.9 202.49 346.49 202.49C343.55 202.49 340.97 203.81 339.38 206.6L339.29 206.51L339.14 203.18H336.35C336.44 204.71 336.56 206.51 336.56 208.28V225.88H339.29V212.81Z" fill="#0A69B3"/>
</g>
<mask id="mask23_80_2" style="mask-type:luminance" maskUnits="userSpaceOnUse" x="0" y="0" width="602" height="267">
<path d="M601.42 0H0V266.9H601.42V0Z" fill="white"/>
</mask>
<g mask="url(#mask23_80_2)">
<path d="M379.53 213.98C379.53 219.14 377.73 224.06 371.79 224.06C366.6 224.06 365.37 218.3 365.37 214.1C365.37 209.75 367.05 204.95 372.21 204.95C377.49 204.98 379.53 209.36 379.53 213.98ZM379.74 225.82H382.53C382.44 224.32 382.29 222.52 382.29 220.75V193.22H379.59V206.5L379.5 206.59C377.91 203.92 374.76 202.48 371.73 202.48C364.98 202.48 362.4 208.54 362.4 214.41C362.4 220.11 364.98 226.52 371.73 226.52C374.91 226.52 377.67 225.02 379.5 222.32L379.59 222.5L379.74 225.82Z" fill="#0A69B3"/>
</g>
<mask id="mask24_80_2" style="mask-type:luminance" maskUnits="userSpaceOnUse" x="0" y="0" width="602" height="267">
<path d="M601.42 0H0V266.9H601.42V0Z" fill="white"/>
</mask>
<g mask="url(#mask24_80_2)">
<path d="M394.1 193.23H391.37V225.88H394.1V212.81C394.1 208.73 396.14 204.98 400.61 204.98C404.33 204.98 406.58 207.29 406.58 211.22V225.88H409.31V211.67C409.31 209.06 408.71 202.49 401.3 202.49C398.36 202.49 395.78 203.81 394.19 206.6H394.1V193.23Z" fill="#0A69B3"/>
</g>
<mask id="mask25_80_2" style="mask-type:luminance" maskUnits="userSpaceOnUse" x="0" y="0" width="602" height="267">
<path d="M601.42 0H0V266.9H601.42V0Z" fill="white"/>
</mask>
<g mask="url(#mask25_80_2)">
<path d="M419.74 219.52C419.74 213.82 427.78 214.54 431.64 214.39C431.91 219.13 430.77 224.02 424.86 224.02C422.08 224.05 419.74 222.61 419.74 219.52ZM431.61 211.94C428.31 212.12 424.38 211.67 421.35 212.99C418.65 214.13 416.79 216.47 416.79 219.56C416.79 224 420.15 226.58 424.35 226.58C427.41 226.58 430.47 224.78 431.46 222.86L431.58 222.53H431.67L431.76 225.83H434.55C434.46 224.3 434.28 222.5 434.34 220.73V210C434.43 204.81 431.31 202.5 426.27 202.5C421.92 202.5 418.44 204.27 417.78 208.92H420.69C421.05 205.86 423.39 204.99 426.24 204.99C429.45 204.99 431.34 206.16 431.61 209.88V211.94Z" fill="#0A69B3"/>
</g>
<mask id="mask26_80_2" style="mask-type:luminance" maskUnits="userSpaceOnUse" x="0" y="0" width="602" height="267">
<path d="M601.42 0H0V266.9H601.42V0Z" fill="white"/>
</mask>
<g mask="url(#mask26_80_2)">
<path d="M446.4 193.23H443.7V225.88H446.4V193.23Z" fill="#0A69B3"/>
</g>
<mask id="mask27_80_2" style="mask-type:luminance" maskUnits="userSpaceOnUse" x="0" y="0" width="602" height="267">
<path d="M601.42 0H0V266.9H601.42V0Z" fill="white"/>
</mask>
<g mask="url(#mask27_80_2)">
<path d="M89.1801 109.3C89.1801 117.37 82.4601 123.9 74.1301 123.9C65.8201 123.9 59.1101 117.36 59.1101 109.3C59.1101 101.24 65.8601 94.7 74.1301 94.7C82.4601 94.69 89.1801 101.23 89.1801 109.3Z" fill="#9F9FA4"/>
</g>
<mask id="mask28_80_2" style="mask-type:luminance" maskUnits="userSpaceOnUse" x="0" y="0" width="602" height="267">
<path d="M601.42 0H0V266.9H601.42V0Z" fill="white"/>
</mask>
<g mask="url(#mask28_80_2)">
<path d="M74.1499 123.9C82.4452 123.9 89.1699 117.363 89.1699 109.3C89.1699 101.237 82.4452 94.7 74.1499 94.7C65.8546 94.7 59.1299 101.237 59.1299 109.3C59.1299 117.363 65.8546 123.9 74.1499 123.9Z" stroke="#686D73" stroke-width="0.369" stroke-miterlimit="10"/>
</g>
<mask id="mask29_80_2" style="mask-type:luminance" maskUnits="userSpaceOnUse" x="0" y="0" width="602" height="267">
<path d="M601.42 0H0V266.9H601.42V0Z" fill="white"/>
</mask>
<g mask="url(#mask29_80_2)">
<path d="M97.1801 108.01L116.22 106.96C115.77 99.37 113.13 92.06 108.63 85.82C104.31 79.88 98.4301 75.15 91.6001 72.12C86.0801 69.69 80.1201 68.46 74.1501 68.46C72.1401 68.46 70.1001 68.61 68.0901 68.88C60.4401 69.96 53.2801 73.08 47.3401 77.85C41.5201 82.53 37.0801 88.64 34.5401 95.54C32.8901 99.98 32.0801 104.66 32.0801 109.33C32.0801 112.48 32.4401 115.6 33.1901 118.69C34.9301 125.89 38.6801 132.45 43.9501 137.76C49.2601 143.07 55.9701 146.91 63.3501 148.82C66.8901 149.75 70.5501 150.17 74.1701 150.17C78.5201 150.17 82.9001 149.51 87.0601 148.22C87.3901 148.1 87.7501 147.98 88.1101 147.86L81.7801 130.38C81.6001 130.44 81.4201 130.5 81.2101 130.56C78.9601 131.28 76.5301 131.61 74.1301 131.61C72.1201 131.61 70.1101 131.37 68.1901 130.86C64.2001 129.84 60.4801 127.71 57.5801 124.8C54.7001 121.95 52.6301 118.26 51.7001 114.4C51.3101 112.72 51.1001 111.01 51.1001 109.27C51.1001 106.69 51.5501 104.11 52.4501 101.71C53.8301 97.96 56.2901 94.57 59.4701 92.02C62.6801 89.44 66.6701 87.7 70.7701 87.13C71.8801 86.98 72.9901 86.89 74.1001 86.89C77.4001 86.89 80.7001 87.58 83.6401 88.9C87.3601 90.52 90.6301 93.16 92.9701 96.43C95.4701 99.82 96.9401 103.9 97.1801 108.01ZM88.1601 131.73C88.5201 132.24 88.7601 132.96 88.7901 133.62C88.8201 134.01 88.8201 134.4 88.8201 134.79C88.8201 135.45 88.7901 136.14 88.7901 136.83C88.7901 137.76 88.8201 138.72 89.0301 139.74C89.3001 141.06 89.8101 142.35 90.6801 143.46C91.5501 144.54 92.7801 145.41 94.3401 145.74C94.7901 145.83 95.2701 145.89 95.7201 145.89H95.7501C97.4901 145.89 99.2301 145.08 100.25 143.49C100.88 142.5 101.18 141.36 101.18 140.25C101.18 139.77 101.12 139.29 101 138.81C101.81 139.14 102.62 139.32 103.4 139.32H103.43C105.23 139.29 106.82 138.63 107.81 137.55C108.68 136.56 109.1 135.27 109.1 133.98C109.1 132.9 108.8 131.82 108.2 130.83C108.38 130.83 108.56 130.92 108.74 130.92H108.77C110.06 130.92 111.26 130.53 112.19 129.96C113.15 129.39 113.87 128.61 114.29 127.68C114.56 127.02 114.71 126.33 114.71 125.67C114.71 124.26 114.17 122.85 113.18 121.68C113 121.47 112.7 121.32 112.46 121.11C113.69 120.87 114.77 120.42 115.55 119.73C116.6 118.8 117.29 117.6 117.44 116.4C117.47 116.22 117.47 116.07 117.47 115.89C117.47 114.39 116.75 112.92 115.64 111.81C114.5 110.7 112.88 109.95 111.05 109.95C110.63 109.95 110.21 109.98 109.79 110.04C107.81 110.4 106.01 111.36 104.48 112.14C103.7 112.53 103.01 112.92 102.41 113.16C101.81 113.43 101.3 113.55 101 113.52H100.91C100.28 113.46 99.8601 113.34 99.5901 113.16C99.1701 112.92 98.9601 112.62 98.8101 112.26C98.6601 111.9 98.6301 111.48 98.6301 111.18H96.3201C96.3201 111.78 96.3801 112.8 97.0401 113.79C97.1601 113.97 97.3101 114.15 97.4601 114.33C97.1901 114.51 96.9501 114.69 96.7701 114.9C96.2001 115.47 95.9301 116.1 95.7501 116.67L95.6901 116.64C95.6601 116.73 95.6601 116.94 95.6301 117.06C95.6301 117.09 95.6001 117.15 95.6001 117.18H95.6301C95.5701 117.51 95.4501 117.81 95.4501 118.23C95.4501 118.77 95.5401 119.37 95.8401 119.97C95.3001 120.12 94.8501 120.36 94.4601 120.63C94.0101 120.96 93.7101 121.32 93.4701 121.68L93.4401 121.65C93.3501 121.77 93.2601 121.98 93.1701 122.13C93.1701 122.13 93.1701 122.13 93.1701 122.16C92.8401 122.7 92.5101 123.39 92.5101 124.38C92.5101 124.56 92.5101 124.74 92.5401 124.92H92.4201C91.7001 124.92 91.0701 125.1 90.5601 125.37C90.2301 125.52 89.9901 125.73 89.7501 125.94L89.6901 125.88C89.6001 125.94 89.5401 126.06 89.4501 126.15C89.4201 126.18 89.3301 126.21 89.3001 126.24L89.3301 126.27C88.9701 126.6 88.5801 126.93 88.3401 127.38C88.1301 127.77 87.9501 128.22 87.8601 128.7C87.6801 128.64 87.5001 128.58 87.3201 128.55C87.0801 128.52 86.8101 128.49 86.5701 128.49C85.9101 128.49 85.2801 128.64 84.7401 128.85L85.6101 130.92C85.9401 130.77 86.2701 130.71 86.5701 130.71C86.6901 130.71 86.7801 130.71 86.8701 130.74C87.3201 130.89 87.8001 131.22 88.1601 131.73ZM98.3501 122.46C98.6201 122.55 98.9501 122.82 99.3401 123.27C99.9101 123.96 100.57 125.01 101.38 126.15C101.65 126.54 101.98 126.93 102.31 127.32C101.29 127.14 100.3 127.02 99.4001 126.93C98.5301 126.84 97.7201 126.75 97.0901 126.6C96.4601 126.48 95.9801 126.27 95.8001 126.12C95.3201 125.76 95.0801 125.43 94.9001 125.13C94.7501 124.86 94.7201 124.62 94.6901 124.38C94.6901 123.99 94.8401 123.6 95.0501 123.27C95.2601 122.94 95.5001 122.61 95.7701 122.43C96.0701 122.22 96.3401 122.1 96.8501 122.1C97.2101 122.1 97.6901 122.19 98.3501 122.46ZM104.65 118.62C105.04 118.92 105.49 119.19 105.91 119.49C105.04 119.58 104.17 119.73 103.39 119.88C102.1 120.12 100.93 120.36 100.12 120.33C99.7301 120.33 99.4601 120.3 99.2801 120.21C98.5001 119.91 98.1101 119.58 97.9001 119.25C97.6901 118.95 97.6301 118.62 97.6301 118.26C97.6301 118.05 97.6901 117.87 97.7201 117.69C97.8101 117.21 98.0201 116.76 98.3201 116.49C98.6201 116.19 99.0701 115.92 100.09 115.92C100.24 115.92 100.45 115.92 100.63 115.95C100.9 115.98 101.32 116.13 101.83 116.46C102.58 116.94 103.54 117.78 104.65 118.62ZM111.16 119.04C110.65 119.04 110.05 118.95 109.42 118.74C107.77 118.17 106.36 117.09 105.04 116.04C104.59 115.68 104.17 115.32 103.72 114.99C104.68 114.54 105.67 114 106.66 113.49C107.83 112.92 109 112.41 110.14 112.2C110.41 112.14 110.71 112.14 110.98 112.14C112.18 112.14 113.2 112.62 113.95 113.34C114.7 114.06 115.12 115.02 115.12 115.83C115.12 115.92 115.12 116.01 115.09 116.1C115.03 116.61 114.64 117.39 113.95 117.99C113.29 118.62 112.33 119.04 111.16 119.04ZM105.91 127.65C104.5 126.63 103.48 125.19 102.55 123.81C102.22 123.33 101.92 122.88 101.59 122.43C102.31 122.34 103.06 122.19 103.84 122.04C105.13 121.8 106.42 121.56 107.62 121.56C107.95 121.56 108.25 121.59 108.55 121.62C109.78 121.77 110.71 122.31 111.34 123.06C111.97 123.81 112.33 124.74 112.33 125.61C112.33 126.03 112.24 126.42 112.09 126.75C111.94 127.14 111.49 127.62 110.89 128.01C110.29 128.37 109.51 128.61 108.7 128.61C107.86 128.61 106.93 128.37 105.91 127.65ZM97.7501 130.53C97.6001 129.99 97.4501 129.45 97.2701 128.94C98.2901 129.09 99.4001 129.18 100.48 129.3C101.8 129.45 103.12 129.69 104.2 130.17C105.1 130.56 105.73 131.13 106.15 131.79C106.57 132.45 106.78 133.23 106.78 133.95C106.78 134.79 106.51 135.57 106.06 136.08C105.67 136.56 104.62 137.1 103.45 137.07C102.25 137.07 100.96 136.62 99.8501 135.18C98.7701 133.77 98.2301 132.12 97.7501 130.53ZM91.1301 136.82C91.1301 136.16 91.1601 135.47 91.1601 134.78C91.1601 134.51 91.1601 134.21 91.1601 133.94C91.8801 134.3 92.6001 134.57 93.2301 134.84C94.2801 135.29 95.3901 135.74 96.2901 136.31C97.2201 136.88 97.9401 137.51 98.3601 138.32C98.6901 138.89 98.8401 139.58 98.8401 140.24C98.8401 140.96 98.6301 141.71 98.2401 142.31C97.6701 143.21 96.7701 143.63 95.6901 143.63C95.4201 143.63 95.1201 143.6 94.8201 143.54C93.8301 143.33 93.0801 142.82 92.5101 142.07C91.9101 141.35 91.5201 140.36 91.3101 139.31C91.1601 138.53 91.1301 137.69 91.1301 136.82ZM89.9901 129.36C89.9901 129.06 90.0801 128.76 90.2301 128.46C90.3501 128.25 90.5601 128.04 90.8001 127.83C91.0101 127.65 91.2501 127.47 91.4901 127.35C91.7601 127.23 92.0001 127.17 92.3001 127.14C92.7201 127.14 93.3201 127.29 94.2201 127.98C94.4301 128.16 94.6701 128.49 94.9101 129.06C95.2701 129.87 95.5701 131.07 95.9901 132.39C96.1401 132.87 96.3501 133.35 96.5601 133.86C95.7501 133.44 94.9401 133.08 94.1901 132.78C93.2301 132.36 92.2701 132 91.5501 131.58C90.8301 131.13 90.3801 130.65 90.1101 129.93C90.0201 129.72 89.9901 129.54 89.9901 129.36Z" fill="#0A69B3"/>
</g>
</g>
<defs>
<clipPath id="clip0_80_2">
<rect width="601.42" height="266.9" fill="white"/>
</clipPath>
</defs>
</svg>
